<?xml version="1.0" encoding="iso-8859-1"?>
<!-- Uploaded to: SVG Repo, www.svgrepo.com, Generator: SVG Repo Mixer Tools -->
<svg version="1.1" id="Layer_1" xmlns="http://www.w3.org/2000/svg" xmlns:xlink="http://www.w3.org/1999/xlink" 
	 viewBox="0 0 512 512" xml:space="preserve">
<rect x="7.837" y="185.469" style="fill:#DDB92E;" width="21.42" height="141.061"/>
<rect x="7.837" y="185.469" style="fill:#F9D85C;" width="496.327" height="141.061"/>
<g>
	<rect x="482.743" y="185.469" style="fill:#DDB92E;" width="21.42" height="141.061"/>
	<circle style="fill:#DDB92E;" cx="256" cy="256" r="104.49"/>
</g>
<path style="fill:#F9D85C;" d="M360.49,256H151.51c0-57.71,46.78-104.49,104.49-104.49S360.49,198.29,360.49,256z"/>
<g>
	<path style="fill:#FFFFFF;" d="M256,167.184c52.383,0,95.758,38.543,103.32,88.816h1.17c0-57.71-46.78-104.49-104.49-104.49
		S151.51,198.29,151.51,256h1.17C160.242,205.727,203.617,167.184,256,167.184z"/>
	<circle style="fill:#FFFFFF;" cx="256" cy="256" r="73.143"/>
</g>
<path d="M256,175.02c-44.653,0-80.98,36.327-80.98,80.98s36.327,80.98,80.98,80.98s80.98-36.327,80.98-80.98
	S300.653,175.02,256,175.02z M256,321.306c-36.009,0-65.306-29.297-65.306-65.306s29.297-65.306,65.306-65.306
	s65.306,29.297,65.306,65.306S292.009,321.306,256,321.306z"/>
<path d="M512,177.633H336.388c-20.414-20.936-48.906-33.959-80.388-33.959s-59.974,13.024-80.388,33.959H0v156.735h175.612
	c20.414,20.936,48.906,33.959,80.388,33.959s59.974-13.024,80.388-33.959H512V177.633z M496.327,205.845h-86.058v-12.539h86.058
	V205.845z M362.905,290.482c1.32-4.083,2.414-8.267,3.263-12.539h79.292v12.539H362.905z M445.461,221.518v12.539h-79.292
	c-0.849-4.272-1.943-8.455-3.263-12.539H445.461z M368.149,262.269c0.115-2.076,0.178-4.165,0.178-6.269
	c0-2.104-0.064-4.193-0.178-6.269h26.447v12.539H368.149z M461.134,277.943h35.192v12.539h-35.192V277.943z M410.269,262.269
	v-12.539h86.058v12.539H410.269z M461.134,234.057v-12.539h35.192v12.539H461.134z M394.595,193.306v12.539h-38.108
	c-2.178-4.346-4.624-8.536-7.327-12.539H394.595z M66.539,290.482v-12.539h79.292c0.85,4.272,1.944,8.455,3.263,12.539H66.539z
	 M15.673,234.057v-12.539h35.192v12.539H15.673z M101.731,249.731v12.539H15.673v-12.539H101.731z M143.851,262.269h-26.446v-12.539
	h26.446c-0.115,2.076-0.178,4.165-0.178,6.269C143.673,258.104,143.737,260.193,143.851,262.269z M50.866,277.943v12.539H15.673
	v-12.539H50.866z M145.831,234.057H66.539v-12.539h82.555C147.775,225.602,146.681,229.786,145.831,234.057z M155.513,205.845
	h-38.108v-12.539h45.435C160.137,197.309,157.692,201.499,155.513,205.845z M101.731,193.306v12.539H15.673v-12.539H101.731z
	 M15.673,306.155h86.058v12.539H15.673V306.155z M117.405,318.694v-12.539h38.108c2.178,4.346,4.624,8.536,7.327,12.539H117.405z
	 M256,352.653c-53.295,0-96.653-43.358-96.653-96.653s43.358-96.653,96.653-96.653s96.653,43.358,96.653,96.653
	S309.295,352.653,256,352.653z M356.487,306.155h38.108v12.539H349.16C351.863,314.691,354.308,310.501,356.487,306.155z
	 M410.269,318.694v-12.539h86.058v12.539H410.269z"/>
<polygon points="274.492,226.426 256,244.918 226.276,215.194 215.194,226.276 244.918,256 236.875,264.043 247.957,275.125 
	256,267.082 264.043,275.125 275.125,264.043 267.082,256 285.574,237.508 "/>
</svg>